<svg width="88" height="88" viewBox="0 0 88 88" fill="none" xmlns="http://www.w3.org/2000/svg">
<g filter="url(#filter0_d_307_137)">
<rect x="4" width="80" height="80" rx="40" fill="#582B2A" fill-opacity="0.87" shape-rendering="crispEdges"/>
<path d="M44 27C45.1366 27 46.2267 27.4325 47.0305 28.2024C47.8342 28.9723 48.2857 30.0165 48.2857 31.1053V39.3158C48.2857 40.4046 47.8342 41.4488 47.0305 42.2186C46.2267 42.9885 45.1366 43.4211 44 43.4211C42.8634 43.4211 41.7733 42.9885 40.9695 42.2186C40.1658 41.4488 39.7143 40.4046 39.7143 39.3158V31.1053C39.7143 30.0165 40.1658 28.9723 40.9695 28.2024C41.7733 27.4325 42.8634 27 44 27ZM54 39.3158C54 44.1463 50.2714 48.1284 45.4286 48.7989V53H42.5714V48.7989C37.7286 48.1284 34 44.1463 34 39.3158H36.8571C36.8571 41.1304 37.6097 42.8707 38.9492 44.1539C40.2888 45.437 42.1056 46.1579 44 46.1579C45.8944 46.1579 47.7112 45.437 49.0508 44.1539C50.3903 42.8707 51.1429 41.1304 51.1429 39.3158H54Z" fill="white"/>
</g>
<defs>
<filter id="filter0_d_307_137" x="0" y="0" width="88" height="88" filterUnits="userSpaceOnUse" color-interpolation-filters="sRGB">
<feFlood flood-opacity="0" result="BackgroundImageFix"/>
<feColorMatrix in="SourceAlpha" type="matrix" values="0 0 0 0 0 0 0 0 0 0 0 0 0 0 0 0 0 0 127 0" result="hardAlpha"/>
<feOffset dy="4"/>
<feGaussianBlur stdDeviation="2"/>
<feComposite in2="hardAlpha" operator="out"/>
<feColorMatrix type="matrix" values="0 0 0 0 0 0 0 0 0 0 0 0 0 0 0 0 0 0 0.25 0"/>
<feBlend mode="normal" in2="BackgroundImageFix" result="effect1_dropShadow_307_137"/>
<feBlend mode="normal" in="SourceGraphic" in2="effect1_dropShadow_307_137" result="shape"/>
</filter>
</defs>
</svg>
